<?xml version="1.0" encoding="utf-8"?>
<!-- Generator: Adobe Illustrator 16.0.0, SVG Export Plug-In . SVG Version: 6.00 Build 0)  -->
<!DOCTYPE svg PUBLIC "-//W3C//DTD SVG 1.1//EN" "http://www.w3.org/Graphics/SVG/1.1/DTD/svg11.dtd">
<svg version="1.1" id="Artwork" xmlns="http://www.w3.org/2000/svg" xmlns:xlink="http://www.w3.org/1999/xlink" x="0px" y="0px"
	 width="800px" height="800px" viewBox="0 0 800 800" enable-background="new 0 0 800 800" xml:space="preserve">
<g>
	<path fill="#3EA9F5" d="M76.875,708.438h646.406c31.719,0,57.5-25.781,57.5-57.5V149.219c0-31.719-25.781-57.5-57.5-57.5H76.875
		c-31.719,0-57.5,25.781-57.5,57.5v501.719C19.219,682.656,45.156,708.438,76.875,708.438z M723.125,670.156H76.875
		c-10.625,0-19.219-8.594-19.219-19.219V274.531H742.5v376.406C742.5,661.562,733.75,670.156,723.125,670.156z M76.875,129.844
		h646.406c10.625,0,19.219,8.594,19.219,19.219v87.031h-685v-86.875C57.5,138.438,66.25,129.844,76.875,129.844z"/>
	<path fill="#3EA9F5" d="M110.781,202.188c5,0,10-2.031,13.594-5.625S130,188.125,130,182.969s-2.031-10-5.625-13.594
		c-7.188-7.188-20-7.188-27.031,0c-3.594,3.594-5.625,8.438-5.625,13.594c0,5,2.031,10,5.625,13.594
		C100.781,200.156,105.625,202.188,110.781,202.188z"/>
	<path fill="#3EA9F5" d="M183.125,202.188c5,0,10-2.031,13.438-5.625c3.594-3.594,5.625-8.594,5.625-13.594s-2.031-10-5.625-13.594
		c-7.031-7.188-19.844-7.188-27.031,0c-3.594,3.594-5.625,8.438-5.625,13.594s2.031,10,5.625,13.594
		S177.969,202.188,183.125,202.188z"/>
	<path fill="#3EA9F5" d="M255.312,202.188c5,0,10-2.031,13.594-5.625s5.625-8.594,5.625-13.594s-2.031-10-5.625-13.594
		c-7.188-7.188-20-7.188-27.031,0c-3.594,3.594-5.625,8.438-5.625,13.594c0,5,2.031,10,5.625,13.594
		C245.312,200.156,250.312,202.188,255.312,202.188z"/>
	<path fill="#3EA9F5" d="M461.562,335.781c-22.5,0-44.062,7.5-61.562,21.25c-17.5-13.75-39.062-21.25-61.719-21.25
		c-26.562,0-51.719,10.312-70.469,29.219c-18.906,18.906-29.219,43.906-29.219,70.625s10.469,51.719,29.375,70.625l109.844,109.844
		c5.938,5.938,13.906,9.219,22.188,9.219c8.438,0,16.25-3.281,22.188-9.219l109.688-109.688
		c18.906-18.906,29.219-43.906,29.375-70.625c0-26.719-10.312-51.719-29.219-70.625C513.281,346.25,488.281,335.781,461.562,335.781
		z M505,479.219L400.156,584.062L295,478.906c-11.719-11.719-18.125-27.188-18.125-43.594s6.406-31.875,17.969-43.594
		c11.562-11.562,27.031-17.969,43.438-17.969s31.875,6.406,43.594,18.125l4.531,4.531C390,400,394.844,402.031,400,402.031l0,0
		c5,0,10-2.031,13.594-5.625l4.375-4.375c11.719-11.719,27.188-18.125,43.594-18.125s31.875,6.406,43.438,17.969
		c11.562,11.719,17.969,27.188,17.969,43.594C523.125,452.188,516.719,467.656,505,479.219z"/>
</g>
</svg>
